<svg xmlns="http://www.w3.org/2000/svg" id="svg1" width="303.211" height="303.211" version="1.1" viewBox="0 0 80.225 80.225" xml:space="preserve">
  <g id="layer1" transform="translate(-52.067)">
    <path id="path1" fill="#39d" fill-opacity="1" stroke-width=".917" d="M65.384 0c-.817 0-1.06.052-1.624.329-1.377.676-2.289 2.105-2.306 3.614-.012 1.064.27 1.915.897 2.708.47.594 1.438 1.248 2.045 1.382l.32.07-.056 1.64c-.03.903-.08 1.807-.11 2.008l-.055.366-2.786.797c-2.74.785-5.614 1.616-9.642 2.787v3.554a2641.864 2641.864 0 0 0 10.748-2.224c.757-.164 1.4-.275 1.429-.245.05.05-.238 5.688-.888 17.375a1661.21 1661.21 0 0 0-.538 10.37 1930.02 1930.02 0 0 1-.602 11.567c-.544 9.817-.93 16.88-1.137 20.799a84.119 84.119 0 0 1-.232 3.328h9.406c-.149-1.016-.244-2.744-.418-6.025-.174-3.297-.448-8.314-.608-11.15-.16-2.834-.4-7.338-.534-10.008-.134-2.67-.43-8.254-.659-12.407-.396-7.195-.884-16.342-1.142-21.398a101.731 101.731 0 0 0-.16-2.679c-.03-.255.024-.367.211-.445.261-.11 3.4-1.009 7.923-2.271 1.45-.405 7.44-2.102 13.307-3.771 12.194-3.47 18.154-5.17 20.857-5.937-.064.217-.151.497-.251.798-.219.66-1.35 4.112-2.514 7.672-.694 2.124-1.447 4.454-2.17 6.62h-4.969a3.426 3.426 0 0 0-3.42 3.42V33.45l-2.257-1.612a1.078 1.078 0 0 0-.084-.038l-.006-.004a.891.891 0 0 0-.163-.074l-.007-.003a.852.852 0 0 0-.188-.038h-.004a.637.637 0 0 0-.086-.017l-.005-.001c-.024 0-.045.012-.07.014a.908.908 0 0 0-.198.04h.006a.987.987 0 0 0-.164.062.888.888 0 0 0-.14.095.847.847 0 0 0-.137.128l-.001.001c-.017.02-.04.03-.056.051a.67.67 0 0 0-.037.084l-.003.006a.845.845 0 0 0-.115.354v.003a.803.803 0 0 0-.018.092V52.5c.002 1.373.07 1.409-.693 1.4H87.383l-.001.39c-.003.547.545 1.543 1.32 2.402 2.14 2.37 6.483 4.363 11.809 5.417 3.197.633 5.262.82 9.05.817 6.313-.002 11.077-.81 15.524-2.631 1.353-.554 2.564-1.183 3.585-1.857 0 1.829 0 2.535.002 0 .892-.59 1.638-1.212 2.206-1.848.64-.716 1.41-2.096 1.414-2.483 0-.04-.007-.07-.025-.087-.062-.062-.893-.127-1.847-.146l-1.748-.004V32.597a.803.803 0 0 0-.02-.096.856.856 0 0 0-.12-.364l.003.003a.79.79 0 0 0-.04-.087c-.013-.019-.034-.029-.049-.047a.96.96 0 0 0-.141-.133h-.003a.714.714 0 0 0-.299-.155h-.005a.902.902 0 0 0-.185-.04h-.004c-.025-.002-.045-.013-.07-.013-1.157.202-2.073.36-2.8.488v-9.508a3.426 3.426 0 0 0-3.42-3.421h-5.586c-1.095-3.283-2.239-6.627-2.874-8.598-1.436-4.455-2.039-6.364-2.208-7.005l.132-.035.87-.22.185.264c.418.596 1.489.806 2.25.441.855-.41 1.194-1.682.674-2.523-.249-.402-1.08-.894-1.502-.89-.403.005-1.224.445-1.437.77a2.39 2.39 0 0 0-.283.695c-.062.3-.156.4-.434.461-.196.043-2.729.57-5.63 1.17-5.487 1.134-8.538 1.751-25.835 5.231-10.569 2.126-12.566 2.53-13.029 2.639-.237.055-.266.004-.324-.568-.174-1.728-.187-2.968-.03-2.968.359 0 1.646-.762 2.058-1.219.74-.817 1.068-1.677 1.072-2.799.003-.847-.043-1.056-.387-1.755-.455-.926-1.107-1.56-2.052-1.999-.556-.258-.851-.313-1.692-.316zm44.69 5.31c.033.055.206.587.384 1.18.694 2.306 2.479 7.842 4.092 12.734h-9.15c.955-2.873 2.18-6.67 3.746-11.397.478-1.44.895-2.573.928-2.517zM99.126 21.09h22.393c.858 0 1.554.696 1.555 1.555v9.833c-.886.156-.939.166-.991.177l.991-.172v2.299l-6.082 4.345h-13.337l-6.083-4.345-.001-12.137c0-.859.696-1.555 1.555-1.556zm2.488 3.11a.933.933 0 0 0 0 1.866h17.417a.933.933 0 0 0 0-1.866zm0 4.975a.933.933 0 0 0 0 1.867h17.417a.933.933 0 0 0 0-1.867zm25.84 2.547a.89.89 0 0 0-.17.077l.004-.003a.84.84 0 0 0-.093.042l-2.255 1.611v-1.29zm-25.84 2.43a.933.933 0 0 0 0 1.865h17.417a.933.933 0 0 0 0-1.866zm-7.775.257l15.941 11.385c.017.012.038.007.055.017.134.091.3.148.477.154l.007.003h.003l.006-.003a.913.913 0 0 0 .48-.156c.017-.009.037-.005.052-.015l15.94-11.385V52.5c0 .858-.696 1.554-1.554 1.555H95.394A1.557 1.557 0 0 1 93.84 52.5zm12.427 6.584h8.113l-4.057 2.897zm22.398 8.799c.002.386.003 2.13.004 4.078h-.01c.003-3.49.005-4.464.006-4.078z"/>
  </g>
</svg>
