<svg xmlns="http://www.w3.org/2000/svg" width="500" height="345" version="1.1" viewBox="0 0 132.292 91.281">
    <path d="M65.456 0c-.875-.003-1.115.044-1.695.329-1.378.677-2.29 2.105-2.307 3.614-.012 1.063.27 1.915.897 2.708.47.594 1.438 1.248 2.045 1.382l.32.07-.056 1.64c-.03.903-.08 1.806-.11 2.008l-.055.365-2.786.799c-3.593 1.029-7.42 2.137-13.775 3.99-2.814.82-5.97 1.737-7.014 2.04-4.719 1.366-12.4 3.603-14.365 4.183l-4.47 1.32-2.313.682-.468-.423c-.84-.758-1.972-.703-2.606.128-.275.36-.333.557-.333 1.126 0 1.146.755 1.849 1.882 1.752.766-.066 1.146-.348 1.478-1.099l.28-.635.853-.209c.462-.113.86-.186.894-.165.023.025-.137.584-.356 1.244-.219.659-1.35 4.111-2.514 7.672-2.078 6.354-4.54 13.648-5.846 17.322-1.877 5.276-5.696 15.319-8.673 22.806l-.465 1.168H0l-.001.39c-.003.547.545 1.542 1.32 2.402 2.14 2.37 6.484 4.362 11.809 5.417 3.197.633 5.262.82 9.05.817 6.313-.002 11.077-.81 15.524-2.631 2.537-1.04 4.575-2.342 5.792-3.705.706-.79 1.57-2.388 1.39-2.57-.062-.062-.894-.127-1.847-.146l-1.734-.033-.521-1.259a98.228 98.228 0 0 1-.864-2.157c-.188-.495-.616-1.601-.952-2.458-2.36-6.02-5.003-13.008-6.868-18.161-.803-2.217-4.888-14.415-6.423-19.18-1.831-5.683-2.309-7.222-2.257-7.273.103-.103 2.7-.661 11.647-2.501 1.121-.23 2.66-.552 3.417-.713.759-.162 6.234-1.291 12.168-2.51 5.934-1.22 11.408-2.35 12.164-2.515.757-.164 1.4-.274 1.429-.245.05.05-.238 5.688-.888 17.375-.161 2.901-.403 7.567-.538 10.37-.134 2.801-.405 8.007-.602 11.567-.544 9.817-.93 16.88-1.137 20.799-.103 1.945-.245 3.725-.316 3.955-.55 1.797-2.85 2.927-7.535 3.701-.824.137-2.982.413-4.795.616-5.021.56-7.762 1.184-10.034 2.283-1.862.9-3.033 2.216-3.033 3.409v.42h60.331l-.058-.514c-.172-1.522-1.588-2.835-4.056-3.762-2.4-.902-4.893-1.388-10.037-1.956-6.28-.695-9.166-1.522-10.504-3.01-.82-.913-.851-1.111-1.207-7.84-.175-3.296-.448-8.313-.608-11.148-.16-2.835-.4-7.34-.534-10.01s-.43-8.253-.659-12.406c-.396-7.195-.884-16.342-1.142-21.398a101.605 101.605 0 0 0-.16-2.679c-.03-.255.024-.367.211-.445.261-.11 3.4-1.009 7.923-2.27 1.45-.405 7.44-2.103 13.307-3.772 12.193-3.47 18.154-5.17 20.857-5.937-.064.217-.151.497-.251.798-.219.66-1.35 4.112-2.514 7.672-.694 2.124-1.447 4.454-2.17 6.62h-4.969a3.426 3.426 0 0 0-3.42 3.42V33.45l-2.257-1.612a1.072 1.072 0 0 0-.084-.038l-.006-.003a.893.893 0 0 0-.163-.075l-.007-.002a.851.851 0 0 0-.188-.04h-.004a.639.639 0 0 0-.086-.016l-.005-.001c-.024 0-.045.012-.07.014a.91.91 0 0 0-.198.04h.007a.987.987 0 0 0-.165.062.891.891 0 0 0-.14.095.848.848 0 0 0-.137.128l-.001.001c-.017.02-.04.03-.056.051a.663.663 0 0 0-.037.084l-.003.006a.845.845 0 0 0-.114.354v.003a.795.795 0 0 0-.019.092V52.5c.002 1.373.07 1.409-.693 1.4h-3.896l-.002.39c-.003.547.545 1.543 1.32 2.402 2.14 2.37 6.483 4.363 11.809 5.417 3.197.633 5.262.82 9.05.818 6.313-.003 11.077-.811 15.524-2.632 1.353-.554 2.564-1.183 3.585-1.857 0 1.829 0 2.535.002 0 .892-.59 1.638-1.212 2.206-1.848.706-.79 1.57-2.389 1.39-2.57-.063-.062-.894-.127-1.848-.146l-1.748-.004V32.597a.741.741 0 0 0-.02-.102v.007a.857.857 0 0 0-.12-.366l.003.004a.787.787 0 0 0-.04-.087c-.013-.019-.035-.028-.05-.047a.966.966 0 0 0-.14-.133h-.004a.714.714 0 0 0-.298-.155h-.005a.904.904 0 0 0-.186-.04h-.004c-.025-.002-.045-.013-.07-.013l-2.799.488v-9.508a3.426 3.426 0 0 0-3.421-3.421h-5.586c-1.095-3.283-2.239-6.627-2.874-8.598-1.435-4.455-2.038-6.364-2.208-7.005l.132-.035.871-.22.185.264c.418.597 1.488.806 2.25.441.854-.41 1.193-1.681.673-2.523-.248-.402-1.08-.894-1.502-.89-.403.005-1.224.445-1.437.77a2.39 2.39 0 0 0-.283.695c-.062.3-.156.4-.434.461-.196.043-2.729.57-5.63 1.17-5.486 1.134-8.537 1.752-25.834 5.231-10.569 2.126-12.567 2.53-13.029 2.639-.237.055-.267.004-.324-.568-.175-1.729-.187-2.968-.03-2.968.359 0 1.646-.762 2.058-1.219.739-.817 1.068-1.677 1.072-2.799.003-.847-.043-1.056-.387-1.755-.455-.926-1.107-1.56-2.052-1.999-.556-.258-.851-.313-1.692-.316zm44.618 5.31c.033.056.206.587.384 1.18.694 2.306 2.479 7.843 4.092 12.734h-9.15c.955-2.873 2.18-6.67 3.746-11.397.478-1.44.895-2.573.928-2.517zM99.126 21.09h22.393c.858 0 1.554.696 1.555 1.555v9.833a50.85 50.85 0 0 0-.991.177l.991-.172v2.299l-6.082 4.345h-13.338l-6.081-4.345-.002-12.137c0-.859.696-1.554 1.555-1.556zm2.488 3.11a.933.933 0 0 0 0 1.866h17.417a.933.933 0 0 0 0-1.866zm-78.923 3.027c.032.056.206.587.384 1.18 1.159 3.85 5.273 16.416 6.75 20.619 2.346 6.67 7.664 20.736 9.984 26.408.062.151.113.3.113.33 0 .03-7.795.054-17.323.054-9.527 0-17.322-.027-17.322-.059s.384-1.017.853-2.188c.47-1.17.95-2.398 1.069-2.728.118-.33.735-1.948 1.372-3.596 1.832-4.747 5.316-14.08 6.466-17.322.452-1.276 2.119-6.276 6.726-20.18.477-1.441.895-2.574.928-2.518zm78.923 1.948a.933.933 0 0 0 0 1.866h17.417a.933.933 0 0 0 0-1.866zm25.84 2.547a.885.885 0 0 0-.17.077l.004-.003a.847.847 0 0 0-.093.042l-2.255 1.611v-1.29zm-25.84 2.43a.933.933 0 0 0 0 1.865h17.417a.933.933 0 0 0 0-1.866zm-7.775.257l15.941 11.385c.016.012.039.007.055.017.134.091.3.148.477.154l.006.003h.003l.006-.003a.914.914 0 0 0 .482-.157l-.004.003c.017-.011.039-.006.055-.017l15.94-11.385V52.5c0 .858-.696 1.554-1.554 1.555H95.394A1.557 1.557 0 0 1 93.84 52.5zm12.427 6.584h8.113l-4.057 2.897zm22.398 8.799c.002.386.003 2.131.004 4.078h-.01c.003-3.49.005-4.464.006-4.078z"/>
</svg>
